<svg xmlns="http://www.w3.org/2000/svg" viewBox="0 0 949.97 192.86"><defs><style>.cls-1,.cls-3{fill:#fff;}.cls-2,.cls-4{fill:none;}.cls-2,.cls-3,.cls-4{stroke:#fff;stroke-miterlimit:10;}.cls-2{stroke-width:8px;}.cls-4{stroke-width:10px;}</style></defs><title>text_logo_white</title><g id="Layer_2" data-name="Layer 2"><g id="Layer_1-2" data-name="Layer 1"><path class="cls-1" d="M0,192.86V58.09H47.43a51.35,51.35,0,0,1,18,3.1A44.45,44.45,0,0,1,80,69.94a41.73,41.73,0,0,1,0,61.56,44.45,44.45,0,0,1-14.59,8.75,51.35,51.35,0,0,1-18,3.1h-22v49.51Zm47.81-73.6q10,0,15.06-5.65a18.81,18.81,0,0,0,5.08-13,20.5,20.5,0,0,0-1.22-7A16,16,0,0,0,63,87.73a18.42,18.42,0,0,0-6.3-4,23.63,23.63,0,0,0-8.85-1.51H25.41v37.08Z"/><path class="cls-1" d="M163.42,58.09h49.12A50.67,50.67,0,0,1,231,61.29a42.58,42.58,0,0,1,14.21,8.84,38.49,38.49,0,0,1,9.13,13.46,44.6,44.6,0,0,1,3.2,17,35.29,35.29,0,0,1-2.26,12.7,37.86,37.86,0,0,1-6.21,10.73,45.74,45.74,0,0,1-9.22,8.47,46.73,46.73,0,0,1-11.11,5.74l-.19,1.32,36.14,51.76v1.51H235.51l-34.82-50.63H188.83v50.63H163.42Zm48.94,60.79q8.65,0,14.21-5.27a17.62,17.62,0,0,0,5.55-13.36,20.44,20.44,0,0,0-1.22-7,17.63,17.63,0,0,0-3.67-6A18.12,18.12,0,0,0,221.11,83a20.74,20.74,0,0,0-8.38-1.6h-23.9v37.45Z"/><path class="cls-1" d="M356.38,58.09h29L436,192.86H408l-11.11-32.19h-52l-11.1,32.19H305.75Zm32.19,79.24-12.05-33.69-4.89-16.38h-1.51l-4.89,16.38-12.05,33.69Z"/><path class="cls-1" d="M699.41,122.46,658.56,58.09H690l26.17,44h1.5l26.17-44h31.43l-40.84,64.37,44.23,70.4H747L717.66,144.3h-1.5l-29.37,48.56H655.17Z"/><path class="cls-1" d="M880,130.18,834.59,58.09h30.3l26.92,44.61h1.51l26-44.61H950l-44.61,72.09v62.68H880Z"/><path class="cls-1" d="M490.37,63.57V186.35c0,3.6,3.36,6.51,7.51,6.51H599.81c4.15,0,7.52-2.91,7.52-6.51V63.57c0-3.59-3.37-6.5-7.52-6.5h-9.22c-4.15,0-7.52,2.91-7.52,6.5V165.84c0,3.59-3.36,6.5-7.51,6.5H523.19c-4.15,0-7.51-2.91-7.51-6.5V63.57c0-3.59-3.36-6.5-7.51-6.5H497.88C493.73,57.07,490.37,60,490.37,63.57Z"/><circle class="cls-2" cx="548.85" cy="49.51" r="13.97"/><path class="cls-3" d="M557.72,149H540.25c-1.88,0-3.4-2.91-3.4-6.49V52.57c3.81,0,7.63,13.07,11.44,13.07,4.27,0,8.54-13.07,12.82-13.07V142.5C561.11,146.08,559.59,149,557.72,149Z"/><path class="cls-4" d="M513.72,44C512.53,23.84,527.33,7.09,544.6,5.18,564.25,3,585,20.73,584.29,44"/></g></g></svg>